<svg xmlns="http://www.w3.org/2000/svg" xmlns:xlink="http://www.w3.org/1999/xlink" width="750" zoomAndPan="magnify" viewBox="0 0 562.5 149.999998" height="200" preserveAspectRatio="xMidYMid meet" version="1.0"><defs><g/><clipPath id="613db98a1b"><path d="M 178.628906 8.398438 L 318 8.398438 L 318 78.835938 L 178.628906 78.835938 Z M 178.628906 8.398438 " clip-rule="nonzero"/></clipPath><clipPath id="2b3c1b5787"><path d="M 240 8.398438 L 383.199219 8.398438 L 383.199219 78.835938 L 240 78.835938 Z M 240 8.398438 " clip-rule="nonzero"/></clipPath></defs><g clip-path="url(#613db98a1b)"><path fill="#1d3557" d="M 204.65625 78.105469 L 178.628906 78.105469 L 248.207031 8.53125 L 317.785156 78.105469 L 291.765625 78.105469 L 248.207031 34.554688 Z M 222.609375 20.289062 L 204.210938 20.289062 L 204.210938 42.1875 L 222.609375 24.417969 Z M 222.609375 20.289062 " fill-opacity="1" fill-rule="nonzero"/></g><g clip-path="url(#2b3c1b5787)"><path fill="#1d3557" d="M 299.511719 49.101562 L 286.503906 36.085938 L 313.785156 8.804688 L 383.363281 78.378906 L 357.335938 78.378906 L 313.785156 34.832031 Z M 246.527344 61.410156 L 246.527344 55.644531 L 240.761719 55.644531 L 240.761719 61.410156 Z M 256.105469 61.410156 L 256.105469 55.644531 L 250.339844 55.644531 L 250.339844 61.410156 Z M 246.527344 70.863281 L 246.527344 65.09375 L 240.761719 65.09375 L 240.761719 70.863281 Z M 256.105469 70.863281 L 256.105469 65.09375 L 250.339844 65.09375 L 250.339844 70.863281 Z M 256.105469 70.863281 " fill-opacity="1" fill-rule="nonzero"/></g><g fill="#1d3557" fill-opacity="1"><g transform="translate(5.344858, 129.244731)"><g><path d="M 27.128906 -15.429688 L 15.226562 -15.429688 L 15.226562 -10.460938 L 22 -10.460938 C 21.398438 -6.292969 18.554688 -4.207031 15.027344 -4.207031 C 10.097656 -4.207031 7.332031 -8.253906 7.332031 -14.265625 C 7.332031 -20.117188 10.058594 -24.085938 15.027344 -24.085938 C 18.515625 -24.085938 20.597656 -22.160156 21.121094 -19.15625 L 26.929688 -19.515625 C 25.96875 -25.527344 21.761719 -29.214844 14.707031 -29.214844 C 7.09375 -29.214844 1.402344 -23.523438 1.402344 -14.265625 C 1.402344 -5.007812 7.171875 0.921875 14.386719 0.921875 C 18.195312 0.921875 20.917969 -0.761719 22.363281 -3.046875 L 23.285156 0 L 27.128906 0 Z M 27.128906 -15.429688 "/></g></g></g><g fill="#1d3557" fill-opacity="1"><g transform="translate(35.073768, 129.244731)"><g><path d="M 22.082031 -9.617188 C 22.082031 -16.871094 17.59375 -21.199219 11.460938 -21.199219 C 5.128906 -21.199219 1.28125 -16.46875 1.28125 -10.417969 C 1.28125 -4.085938 5.210938 0.679688 12.0625 0.679688 C 16.710938 0.679688 20.15625 -1.484375 21.558594 -5.972656 L 15.949219 -6.371094 C 15.269531 -4.570312 13.90625 -3.6875 11.941406 -3.6875 C 9.136719 -3.6875 7.332031 -5.53125 7.09375 -8.65625 L 22.082031 -8.65625 Z M 11.660156 -17.070312 C 14.226562 -17.070312 15.910156 -15.386719 16.230469 -12.503906 L 7.054688 -12.503906 C 7.332031 -15.347656 9.097656 -17.070312 11.660156 -17.070312 Z M 11.660156 -17.070312 "/></g></g></g><g fill="#1d3557" fill-opacity="1"><g transform="translate(58.231827, 129.244731)"><g><path d="M 12.902344 -16.511719 L 12.902344 -20.679688 L 9.058594 -20.558594 L 9.058594 -27.050781 L 3.40625 -27.050781 L 3.40625 -20.597656 L 0.601562 -20.679688 L 0.601562 -16.511719 L 3.40625 -16.632812 L 3.40625 -5.8125 C 3.40625 -1.644531 5.050781 0 9.21875 0 L 12.902344 0 L 12.902344 -4.527344 L 11.019531 -4.527344 C 9.617188 -4.527344 9.058594 -5.089844 9.058594 -6.492188 L 9.058594 -16.632812 Z M 12.902344 -16.511719 "/></g></g></g><g fill="#1d3557" fill-opacity="1"><g transform="translate(71.934373, 129.244731)"><g><path d="M 22.761719 -28.53125 L 2.605469 -28.53125 L 2.605469 0 L 8.535156 0 L 8.535156 -11.820312 L 20.957031 -11.820312 L 20.957031 -17.113281 L 8.535156 -17.113281 L 8.535156 -23.242188 L 22.761719 -23.242188 Z M 22.761719 -28.53125 "/></g></g></g><g fill="#1d3557" fill-opacity="1"><g transform="translate(94.892144, 129.244731)"><g><path d="M 8.054688 0 L 8.054688 -28.53125 L 2.40625 -28.53125 L 2.40625 0 Z M 8.054688 0 "/></g></g></g><g fill="#1d3557" fill-opacity="1"><g transform="translate(105.349352, 129.244731)"><g><path d="M 11.863281 0.679688 C 18.074219 0.679688 22.441406 -4.007812 22.441406 -10.257812 C 22.441406 -16.511719 18.074219 -21.199219 11.863281 -21.199219 C 5.652344 -21.199219 1.28125 -16.511719 1.28125 -10.257812 C 1.28125 -4.007812 5.652344 0.679688 11.863281 0.679688 Z M 11.863281 -3.726562 C 8.695312 -3.726562 6.734375 -6.292969 6.734375 -10.257812 C 6.734375 -14.226562 8.695312 -16.792969 11.863281 -16.792969 C 15.027344 -16.792969 16.992188 -14.226562 16.992188 -10.257812 C 16.992188 -6.292969 15.027344 -3.726562 11.863281 -3.726562 Z M 11.863281 -3.726562 "/></g></g></g><g fill="#1d3557" fill-opacity="1"><g transform="translate(129.068372, 129.244731)"><g><path d="M 12.742188 -21.238281 C 10.460938 -21.238281 8.777344 -20.039062 7.855469 -17.832031 L 7.933594 -20.679688 L 2.40625 -20.679688 L 2.40625 0 L 8.054688 0 L 8.054688 -10.058594 C 8.054688 -14.066406 9.738281 -16.03125 13.183594 -16.03125 C 13.585938 -16.03125 13.945312 -15.988281 14.347656 -15.949219 L 14.347656 -21.078125 C 13.785156 -21.199219 13.222656 -21.238281 12.742188 -21.238281 Z M 12.742188 -21.238281 "/></g></g></g><g fill="#1d3557" fill-opacity="1"><g transform="translate(144.213284, 129.244731)"><g><path d="M 8.09375 -23.402344 L 8.09375 -28.53125 L 2.445312 -28.53125 L 2.445312 -23.402344 Z M 8.054688 0 L 8.054688 -20.679688 L 2.40625 -20.679688 L 2.40625 0 Z M 8.054688 0 "/></g></g></g><g fill="#1d3557" fill-opacity="1"><g transform="translate(154.670491, 129.244731)"><g><path d="M 15.75 -18.59375 C 14.347656 -20.316406 12.382812 -21.199219 9.738281 -21.199219 C 5.050781 -21.199219 1.28125 -17.191406 1.28125 -10.417969 C 1.28125 -3.765625 4.96875 0.679688 10.179688 0.679688 C 12.742188 0.679688 14.789062 -0.402344 16.191406 -2.566406 L 16.390625 0 L 21.398438 0 L 21.398438 -28.53125 L 15.75 -28.53125 Z M 11.382812 -4.289062 C 8.65625 -4.289062 6.734375 -6.613281 6.734375 -10.417969 C 6.734375 -14.1875 8.65625 -16.511719 11.382812 -16.511719 C 14.105469 -16.511719 16.03125 -14.144531 16.03125 -10.417969 C 16.03125 -6.691406 14.105469 -4.289062 11.382812 -4.289062 Z M 11.382812 -4.289062 "/></g></g></g><g fill="#1d3557" fill-opacity="1"><g transform="translate(178.46964, 129.244731)"><g><path d="M 20.71875 0 C 20.117188 -1.042969 19.917969 -2.40625 19.917969 -4.328125 L 19.917969 -13.464844 C 19.917969 -18.554688 16.910156 -21.160156 10.980469 -21.160156 C 5.410156 -21.160156 2.566406 -19.035156 2.164062 -14.507812 L 7.332031 -14.425781 C 7.613281 -16.351562 8.695312 -17.152344 11.019531 -17.152344 C 13.265625 -17.152344 14.507812 -16.429688 14.507812 -14.90625 L 14.507812 -13.386719 L 7.292969 -11.941406 C 3.125 -11.101562 1 -8.976562 1 -5.691406 C 1 -1.921875 3.808594 0.601562 8.175781 0.601562 C 10.898438 0.601562 13.144531 -0.402344 14.546875 -2.082031 C 14.667969 -1.363281 14.828125 -0.722656 14.988281 0 Z M 9.777344 -3.566406 C 7.695312 -3.566406 6.53125 -4.570312 6.53125 -6.050781 C 6.53125 -7.414062 7.492188 -8.296875 9.21875 -8.65625 L 14.507812 -9.777344 L 14.507812 -8.253906 C 14.507812 -5.210938 12.464844 -3.566406 9.777344 -3.566406 Z M 9.777344 -3.566406 "/></g></g></g><g fill="#1d3557" fill-opacity="1"><g transform="translate(198.381894, 129.244731)"><g><path d="M 28.132812 -14.265625 L 26.769531 -8.535156 L 25.609375 -14.265625 L 22.480469 -28.53125 L 16.632812 -28.53125 L 13.503906 -14.265625 L 12.34375 -8.535156 L 10.980469 -14.265625 L 7.292969 -28.53125 L 1 -28.53125 L 9.335938 0 L 15.109375 0 L 18.273438 -14.105469 L 19.515625 -19.757812 L 20.71875 -14.105469 L 23.882812 0 L 29.574219 0 L 37.910156 -28.53125 L 31.820312 -28.53125 Z M 28.132812 -14.265625 "/></g></g></g><g fill="#1d3557" fill-opacity="1"><g transform="translate(236.885143, 129.244731)"><g><path d="M 8.09375 -23.402344 L 8.09375 -28.53125 L 2.445312 -28.53125 L 2.445312 -23.402344 Z M 8.054688 0 L 8.054688 -20.679688 L 2.40625 -20.679688 L 2.40625 0 Z M 8.054688 0 "/></g></g></g><g fill="#1d3557" fill-opacity="1"><g transform="translate(247.342339, 129.244731)"><g><path d="M 13.984375 -21.199219 C 11.339844 -21.199219 9.378906 -20.117188 8.015625 -17.875 L 7.933594 -20.679688 L 2.40625 -20.679688 L 2.40625 0 L 8.054688 0 L 8.054688 -11.058594 C 8.054688 -14.144531 9.699219 -16.109375 12.101562 -16.109375 C 14.105469 -16.109375 15.109375 -14.746094 15.109375 -12.582031 L 15.109375 0 L 20.757812 0 L 20.757812 -13.867188 C 20.757812 -18.355469 18.273438 -21.199219 13.984375 -21.199219 Z M 13.984375 -21.199219 "/></g></g></g><g fill="#1d3557" fill-opacity="1"><g transform="translate(270.500433, 129.244731)"><g><path d="M 15.75 -18.59375 C 14.347656 -20.316406 12.382812 -21.199219 9.738281 -21.199219 C 5.050781 -21.199219 1.28125 -17.191406 1.28125 -10.417969 C 1.28125 -3.765625 4.96875 0.679688 10.179688 0.679688 C 12.742188 0.679688 14.789062 -0.402344 16.191406 -2.566406 L 16.390625 0 L 21.398438 0 L 21.398438 -28.53125 L 15.75 -28.53125 Z M 11.382812 -4.289062 C 8.65625 -4.289062 6.734375 -6.613281 6.734375 -10.417969 C 6.734375 -14.1875 8.65625 -16.511719 11.382812 -16.511719 C 14.105469 -16.511719 16.03125 -14.144531 16.03125 -10.417969 C 16.03125 -6.691406 14.105469 -4.289062 11.382812 -4.289062 Z M 11.382812 -4.289062 "/></g></g></g><g fill="#1d3557" fill-opacity="1"><g transform="translate(294.299605, 129.244731)"><g><path d="M 11.863281 0.679688 C 18.074219 0.679688 22.441406 -4.007812 22.441406 -10.257812 C 22.441406 -16.511719 18.074219 -21.199219 11.863281 -21.199219 C 5.652344 -21.199219 1.28125 -16.511719 1.28125 -10.257812 C 1.28125 -4.007812 5.652344 0.679688 11.863281 0.679688 Z M 11.863281 -3.726562 C 8.695312 -3.726562 6.734375 -6.292969 6.734375 -10.257812 C 6.734375 -14.226562 8.695312 -16.792969 11.863281 -16.792969 C 15.027344 -16.792969 16.992188 -14.226562 16.992188 -10.257812 C 16.992188 -6.292969 15.027344 -3.726562 11.863281 -3.726562 Z M 11.863281 -3.726562 "/></g></g></g><g fill="#1d3557" fill-opacity="1"><g transform="translate(317.617866, 129.244731)"><g><path d="M 22.320312 -11.5 L 21.359375 -6.292969 L 20.398438 -11.582031 L 18.074219 -20.679688 L 13.0625 -20.679688 L 10.738281 -11.5 L 9.777344 -6.292969 L 8.816406 -11.5 L 6.53125 -20.679688 L 0.601562 -20.679688 L 6.734375 0 L 12.101562 0 L 15.066406 -11.5 L 15.589844 -14.226562 L 16.070312 -11.5 L 19.035156 0 L 24.40625 0 L 30.535156 -20.679688 L 24.605469 -20.679688 Z M 22.320312 -11.5 "/></g></g></g><g fill="#1d3557" fill-opacity="1"><g transform="translate(348.749067, 129.244731)"><g><path d="M 13.945312 -28.53125 L 2.605469 -28.53125 L 2.605469 0 L 8.535156 0 L 8.535156 -9.9375 L 13.425781 -9.9375 C 20.277344 -9.9375 23.882812 -13.546875 23.882812 -19.355469 C 23.882812 -25.085938 20.117188 -28.53125 13.945312 -28.53125 Z M 8.535156 -14.949219 L 8.535156 -23.523438 L 13.503906 -23.523438 C 16.230469 -23.523438 18.152344 -22.082031 18.152344 -19.277344 C 18.152344 -16.550781 16.390625 -14.949219 12.902344 -14.949219 Z M 8.535156 -14.949219 "/></g></g></g><g fill="#1d3557" fill-opacity="1"><g transform="translate(373.229336, 129.244731)"><g><path d="M 12.742188 -21.238281 C 10.460938 -21.238281 8.777344 -20.039062 7.855469 -17.832031 L 7.933594 -20.679688 L 2.40625 -20.679688 L 2.40625 0 L 8.054688 0 L 8.054688 -10.058594 C 8.054688 -14.066406 9.738281 -16.03125 13.183594 -16.03125 C 13.585938 -16.03125 13.945312 -15.988281 14.347656 -15.949219 L 14.347656 -21.078125 C 13.785156 -21.199219 13.222656 -21.238281 12.742188 -21.238281 Z M 12.742188 -21.238281 "/></g></g></g><g fill="#1d3557" fill-opacity="1"><g transform="translate(388.374259, 129.244731)"><g><path d="M 8.09375 -23.402344 L 8.09375 -28.53125 L 2.445312 -28.53125 L 2.445312 -23.402344 Z M 8.054688 0 L 8.054688 -20.679688 L 2.40625 -20.679688 L 2.40625 0 Z M 8.054688 0 "/></g></g></g><g fill="#1d3557" fill-opacity="1"><g transform="translate(398.831455, 129.244731)"><g><path d="M 11.222656 0.679688 C 16.429688 0.679688 19.957031 -2.203125 20.796875 -7.132812 L 15.269531 -7.132812 C 14.628906 -4.890625 13.304688 -3.726562 11.300781 -3.726562 C 8.414062 -3.726562 6.734375 -6.050781 6.734375 -10.257812 C 6.734375 -14.46875 8.414062 -16.792969 11.300781 -16.792969 C 13.34375 -16.792969 14.667969 -15.710938 15.269531 -13.464844 L 20.796875 -13.464844 C 19.957031 -18.355469 16.511719 -21.199219 11.222656 -21.199219 C 5.089844 -21.199219 1.28125 -16.910156 1.28125 -10.257812 C 1.28125 -3.605469 5.089844 0.679688 11.222656 0.679688 Z M 11.222656 0.679688 "/></g></g></g><g fill="#1d3557" fill-opacity="1"><g transform="translate(420.747505, 129.244731)"><g><path d="M 22.082031 -9.617188 C 22.082031 -16.871094 17.59375 -21.199219 11.460938 -21.199219 C 5.128906 -21.199219 1.28125 -16.46875 1.28125 -10.417969 C 1.28125 -4.085938 5.210938 0.679688 12.0625 0.679688 C 16.710938 0.679688 20.15625 -1.484375 21.558594 -5.972656 L 15.949219 -6.371094 C 15.269531 -4.570312 13.90625 -3.6875 11.941406 -3.6875 C 9.136719 -3.6875 7.332031 -5.53125 7.09375 -8.65625 L 22.082031 -8.65625 Z M 11.660156 -17.070312 C 14.226562 -17.070312 15.910156 -15.386719 16.230469 -12.503906 L 7.054688 -12.503906 C 7.332031 -15.347656 9.097656 -17.070312 11.660156 -17.070312 Z M 11.660156 -17.070312 "/></g></g></g><g fill="#1d3557" fill-opacity="1"><g transform="translate(444.105921, 129.244731)"><g><path d="M 11.058594 0.761719 C 16.632812 0.761719 20.238281 -1.761719 20.238281 -6.132812 C 20.238281 -9.335938 18.3125 -11.222656 14.1875 -12.0625 L 9.738281 -12.984375 C 8.253906 -13.304688 7.414062 -13.984375 7.414062 -15.066406 C 7.414062 -16.390625 8.617188 -17.273438 10.5 -17.273438 C 12.625 -17.273438 14.144531 -16.191406 14.425781 -14.386719 L 19.515625 -14.585938 C 18.996094 -18.632812 15.589844 -21.199219 10.578125 -21.199219 C 5.488281 -21.199219 2.164062 -18.554688 2.164062 -14.386719 C 2.164062 -11.222656 4.128906 -9.136719 8.175781 -8.335938 L 12.261719 -7.535156 C 14.144531 -7.171875 14.988281 -6.570312 14.988281 -5.449219 C 14.988281 -3.886719 13.386719 -3.164062 11.261719 -3.164062 C 8.574219 -3.164062 7.171875 -4.328125 6.851562 -6.371094 L 1.683594 -6.171875 C 2.203125 -1.761719 5.410156 0.761719 11.058594 0.761719 Z M 11.058594 0.761719 "/></g></g></g><g fill="#1d3557" fill-opacity="1"><g transform="translate(465.741566, 129.244731)"><g><path d="M 9.015625 0 L 9.015625 -6.011719 L 2.40625 -6.011719 L 2.40625 0 Z M 9.015625 0 "/></g></g></g><g fill="#1d3557" fill-opacity="1"><g transform="translate(476.358837, 129.244731)"><g><path d="M 11.222656 0.679688 C 16.429688 0.679688 19.957031 -2.203125 20.796875 -7.132812 L 15.269531 -7.132812 C 14.628906 -4.890625 13.304688 -3.726562 11.300781 -3.726562 C 8.414062 -3.726562 6.734375 -6.050781 6.734375 -10.257812 C 6.734375 -14.46875 8.414062 -16.792969 11.300781 -16.792969 C 13.34375 -16.792969 14.667969 -15.710938 15.269531 -13.464844 L 20.796875 -13.464844 C 19.957031 -18.355469 16.511719 -21.199219 11.222656 -21.199219 C 5.089844 -21.199219 1.28125 -16.910156 1.28125 -10.257812 C 1.28125 -3.605469 5.089844 0.679688 11.222656 0.679688 Z M 11.222656 0.679688 "/></g></g></g><g fill="#1d3557" fill-opacity="1"><g transform="translate(498.274886, 129.244731)"><g><path d="M 11.863281 0.679688 C 18.074219 0.679688 22.441406 -4.007812 22.441406 -10.257812 C 22.441406 -16.511719 18.074219 -21.199219 11.863281 -21.199219 C 5.652344 -21.199219 1.28125 -16.511719 1.28125 -10.257812 C 1.28125 -4.007812 5.652344 0.679688 11.863281 0.679688 Z M 11.863281 -3.726562 C 8.695312 -3.726562 6.734375 -6.292969 6.734375 -10.257812 C 6.734375 -14.226562 8.695312 -16.792969 11.863281 -16.792969 C 15.027344 -16.792969 16.992188 -14.226562 16.992188 -10.257812 C 16.992188 -6.292969 15.027344 -3.726562 11.863281 -3.726562 Z M 11.863281 -3.726562 "/></g></g></g><g fill="#1d3557" fill-opacity="1"><g transform="translate(521.993929, 129.244731)"><g><path d="M 25.648438 -21.199219 C 22.84375 -21.199219 20.878906 -19.996094 19.554688 -17.472656 C 18.632812 -19.796875 16.589844 -21.199219 13.625 -21.199219 C 11.140625 -21.199219 9.296875 -20.15625 8.015625 -18.035156 L 7.933594 -20.679688 L 2.40625 -20.679688 L 2.40625 0 L 8.054688 0 L 8.054688 -11.058594 C 8.054688 -14.144531 9.539062 -16.109375 11.742188 -16.109375 C 13.707031 -16.109375 14.507812 -14.546875 14.507812 -12.703125 L 14.507812 0 L 20.15625 0 L 20.15625 -11.058594 C 20.15625 -14.144531 21.640625 -16.109375 23.84375 -16.109375 C 25.808594 -16.109375 26.609375 -14.546875 26.609375 -12.703125 L 26.609375 0 L 32.261719 0 L 32.261719 -13.824219 C 32.261719 -18.152344 29.9375 -21.199219 25.648438 -21.199219 Z M 25.648438 -21.199219 "/></g></g></g></svg>